<svg xmlns="http://www.w3.org/2000/svg" version="1.1" xmlns:xlink="http://www.w3.org/1999/xlink" xmlns:svgjs="http://svgjs.dev/svgjs" width="1000" height="1000" viewBox="0 0 1000 1000"><rect width="1000" height="1000" fill="#ffffff"></rect><g transform="matrix(0.7,0,0,0.7,149.57575757575756,454.35822617693157)"><svg viewBox="0 0 396 52" data-background-color="#ffffff" preserveAspectRatio="xMidYMid meet" height="131" width="1000" xmlns="http://www.w3.org/2000/svg" xmlns:xlink="http://www.w3.org/1999/xlink"><g id="tight-bounds" transform="matrix(1,0,0,1,0.2400000000000091,-0.11807809378888123)"><svg viewBox="0 0 395.52 52.236156187577734" height="52.236156187577734" width="395.52"><g><svg viewBox="0 0 476.87443533856253 62.98060145178017" height="52.236156187577734" width="395.52"><g transform="matrix(1,0,0,1,0,8.704265468371936)"><svg viewBox="0 0 395.52 45.572070515036295" height="45.572070515036295" width="395.52"><g><svg viewBox="0 0 395.52 45.572070515036295" height="45.572070515036295" width="395.52"><g><svg viewBox="0 0 395.52 45.572070515036295" height="45.572070515036295" width="395.52"><g transform="matrix(1,0,0,1,0,0)"><svg width="395.52" viewBox="0.45 -37.5 433.90000000000003 50" height="45.572070515036295" data-palette-color="#e6003d"><path d="M25.55-31.5L25.55-31.5Q24.2-31.5 22.58-31.73 20.95-31.95 18.55-32.45L18.55-32.45 16.45-22.5 23.75-22.5 22.95-18.8 15.65-18.8 11.6 0 4.4 0 11.6-33.4Q8.15-33.25 6.63-30.75 5.1-28.25 5.1-23.05L5.1-23.05Q5.1-22.1 5.23-21.4 5.35-20.7 5.65-20.05L5.65-20.05Q5.75-19.85 5.78-19.78 5.8-19.7 5.8-19.65L5.8-19.65Q3-19.65 1.73-20.83 0.45-22 0.45-24.5L0.45-24.5Q0.45-30.45 4.93-33.98 9.4-37.5 17.5-37.5L17.5-37.5Q17.95-37.5 18.6-37.45 19.25-37.4 20.75-37.25L20.75-37.25Q22.75-37.05 23.83-36.98 24.9-36.9 25.8-36.9L25.8-36.9Q27.15-36.9 28.25-37.05 29.35-37.2 30.3-37.5L30.3-37.5Q30.25-37.4 29.85-35.95 29.45-34.5 28.9-33.65L28.9-33.65Q28.35-32.8 27.53-32.27 26.7-31.75 25.55-31.5ZM32.25-19L28.25 0 21.05 0 26.35-25 33.55-25 32.9-21.9Q35.1-23.75 36.37-24.38 37.65-25 38.95-25L38.95-25Q40.5-25 41.45-23.93 42.4-22.85 42.4-21.25L42.4-21.25Q42.4-19.7 41.4-18.65 40.4-17.6 38.8-17.6L38.8-17.6Q37.95-17.6 37.47-18 37-18.4 36.8-19.65L36.8-19.65Q36.65-20.45 36.45-20.68 36.25-20.9 35.9-20.9L35.9-20.9Q35.05-20.9 34.3-20.55 33.55-20.2 32.25-19L32.25-19ZM57.15-22.7L57.15-22.7 57.15-22.35 57.7-25 64.9-25 61.3-8Q61.2-7.55 61.15-7.18 61.1-6.8 61.1-6.4L61.1-6.4Q61.1-5.3 61.6-4.78 62.1-4.25 63.15-4.25L63.15-4.25Q64.45-4.25 65.5-5.48 66.55-6.7 67.2-8.95L67.2-8.95 69.3-8.95Q67.7-4.35 65.15-2.02 62.6 0.3 59.25 0.3L59.25 0.3Q57.09 0.3 55.82-0.9 54.55-2.1 54.35-4.3L54.35-4.3Q52.8-2 50.92-0.85 49.05 0.3 46.9 0.3L46.9 0.3Q43.8 0.3 42.02-1.8 40.25-3.9 40.25-7.75L40.25-7.75Q40.25-10.55 41.1-13.6 41.95-16.65 43.45-19.15L43.45-19.15Q45.3-22.1 47.75-23.68 50.2-25.25 53.1-25.25L53.1-25.25Q55.05-25.25 56.1-24.58 57.15-23.9 57.15-22.7ZM54.3-8.95L56.7-20.25Q56.7-21 56.15-21.58 55.6-22.15 54.65-22.15L54.65-22.15Q51.9-22.15 49.77-17.55 47.65-12.95 47.65-8.45L47.65-8.45Q47.65-6.5 48.2-5.53 48.75-4.55 50.15-4.55L50.15-4.55Q51.45-4.55 52.67-5.8 53.9-7.05 54.3-8.95L54.3-8.95ZM83.44-22.7L83.44-22.7 83.44-22.4 83.99-25 91.19-25 86.24-1.8Q88.74-2.7 90.17-4.33 91.59-5.95 92.54-8.95L92.54-8.95 94.64-8.95Q93.49-5.15 91.37-2.85 89.24-0.55 85.79 0.4L85.79 0.4 85.04 4Q84.14 8.2 81.89 10.35 79.64 12.5 76.04 12.5L76.04 12.5Q73.49 12.5 71.97 11.2 70.44 9.9 70.44 7.65L70.44 7.65Q70.44 5.2 72.47 3.33 74.49 1.45 78.59 0.2L78.59 0.2 79.19-2.45Q77.89-1.1 76.39-0.4 74.89 0.3 73.19 0.3L73.19 0.3Q70.09 0.3 68.32-1.8 66.54-3.9 66.54-7.75L66.54-7.75Q66.54-10.55 67.39-13.6 68.24-16.65 69.74-19.15L69.74-19.15Q71.59-22.1 74.04-23.68 76.49-25.25 79.39-25.25L79.39-25.25Q81.34-25.25 82.39-24.58 83.44-23.9 83.44-22.7ZM80.44-8.45L82.99-20.3Q82.94-21.1 82.39-21.63 81.84-22.15 80.94-22.15L80.94-22.15Q78.19-22.15 76.07-17.55 73.94-12.95 73.94-8.45L73.94-8.45Q73.94-6.5 74.49-5.53 75.04-4.55 76.44-4.55L76.44-4.55Q77.64-4.55 78.82-5.65 79.99-6.75 80.44-8.45L80.44-8.45ZM77.79 4.15L78.09 2.7Q75.59 3.65 74.39 4.67 73.19 5.7 73.19 6.95L73.19 6.95Q73.19 7.6 73.69 8.1 74.19 8.6 74.89 8.6L74.89 8.6Q75.74 8.6 76.54 7.4 77.34 6.2 77.79 4.15L77.79 4.15ZM108.79-22.7L108.79-22.7 108.79-22.35 109.34-25 116.54-25 112.94-8Q112.84-7.55 112.79-7.18 112.74-6.8 112.74-6.4L112.74-6.4Q112.74-5.3 113.24-4.78 113.74-4.25 114.79-4.25L114.79-4.25Q116.09-4.25 117.14-5.48 118.19-6.7 118.84-8.95L118.84-8.95 120.94-8.95Q119.34-4.35 116.79-2.02 114.24 0.3 110.89 0.3L110.89 0.3Q108.74 0.3 107.47-0.9 106.19-2.1 105.99-4.3L105.99-4.3Q104.44-2 102.57-0.85 100.69 0.3 98.54 0.3L98.54 0.3Q95.44 0.3 93.67-1.8 91.89-3.9 91.89-7.75L91.89-7.75Q91.89-10.55 92.74-13.6 93.59-16.65 95.09-19.15L95.09-19.15Q96.94-22.1 99.39-23.68 101.84-25.25 104.74-25.25L104.74-25.25Q106.69-25.25 107.74-24.58 108.79-23.9 108.79-22.7ZM105.94-8.95L108.34-20.25Q108.34-21 107.79-21.58 107.24-22.15 106.29-22.15L106.29-22.15Q103.54-22.15 101.42-17.55 99.29-12.95 99.29-8.45L99.29-8.45Q99.29-6.5 99.84-5.53 100.39-4.55 101.79-4.55L101.79-4.55Q103.09-4.55 104.32-5.8 105.54-7.05 105.94-8.95L105.94-8.95ZM118.44-5.7L118.44-5.7Q118.44-6.35 118.54-7.18 118.64-8 118.84-8.95L118.84-8.95 124.19-34 131.59-35 125.84-8Q125.74-7.55 125.69-7.18 125.64-6.8 125.64-6.4L125.64-6.4Q125.64-5.4 126.11-4.98 126.59-4.55 127.69-4.55L127.69-4.55Q129.09-4.55 130.34-5.78 131.59-7 132.19-8.95L132.19-8.95 134.29-8.95Q132.69-4.4 129.99-2.05 127.29 0.3 123.79 0.3L123.79 0.3Q121.29 0.3 119.86-1.28 118.44-2.85 118.44-5.7ZM149.74-20.65L149.74-20.65Q149.74-16.5 146.34-13.43 142.94-10.35 138.24-10.1L138.24-10.1Q138.19-9.25 138.16-8.83 138.14-8.4 138.14-8.1L138.14-8.1Q138.14-5.8 138.91-4.85 139.69-3.9 141.74-3.9L141.74-3.9Q144.09-3.9 146.06-4.98 148.04-6.05 150.59-8.95L150.59-8.95 152.29-8.95Q149.39-4.25 145.99-1.98 142.59 0.3 138.54 0.3L138.54 0.3Q134.69 0.3 132.71-1.7 130.74-3.7 130.74-7.65L130.74-7.65Q130.74-10.5 131.64-13.7 132.54-16.9 134.04-19.4L134.04-19.4Q135.89-22.4 138.46-23.93 141.04-25.45 144.24-25.45L144.24-25.45Q146.99-25.45 148.36-24.28 149.74-23.1 149.74-20.65ZM144.64-22.8L144.64-22.8Q142.94-22.8 141.21-19.78 139.49-16.75 138.64-12.5L138.64-12.5Q141.54-12.7 143.71-15.18 145.89-17.65 145.89-20.75L145.89-20.75Q145.89-21.8 145.59-22.3 145.29-22.8 144.64-22.8ZM158.73-37.5L163.98-37.5 159.43-28.05 155.68-28.05 158.73-37.5ZM179.68-8.35L179.68-8.35Q179.68-7.75 179.63-7.3 179.58-6.85 179.48-6.45L179.48-6.45Q180.48-7.05 181.43-7.7 182.38-8.35 183.08-8.95L183.08-8.95 185.18-8.95Q183.63-7.15 181.76-5.63 179.88-4.1 177.53-2.7L177.53-2.7Q176.18-1.25 174.08-0.48 171.98 0.3 169.68 0.3L169.68 0.3Q166.33 0.3 164.36-1.53 162.38-3.35 162.38-6.1L162.38-6.1Q162.38-7.65 163.13-8.93 163.88-10.2 165.03-10.75L165.03-10.75Q166.73-13.8 168.21-17.28 169.68-20.75 171.18-25.55L171.18-25.55 178.58-26.55Q178.73-22.8 178.93-19.7 179.13-16.6 179.43-12.95L179.43-12.95Q179.58-10.85 179.63-10 179.68-9.15 179.68-8.35ZM171.48-20.15L171.48-20.15Q170.83-18.1 169.91-15.88 168.98-13.65 167.43-10.7L167.43-10.7Q167.98-10.45 168.28-10 168.58-9.55 168.58-8.95L168.58-8.95Q168.58-8 167.93-7.25 167.28-6.5 166.38-6.5L166.38-6.5Q165.88-6.5 165.53-6.68 165.18-6.85 165.03-7.15L165.03-7.15Q165.03-5.3 165.76-4.48 166.48-3.65 168.08-3.65L168.08-3.65Q170.13-3.65 171.28-4.85 172.43-6.05 172.43-8.3L172.43-8.3Q172.43-9 172.38-9.73 172.33-10.45 172.18-12.15L172.18-12.15Q171.93-14.5 171.78-16.3 171.63-18.1 171.48-20.15ZM209.83-18.85L205.83 0 198.63 0 205.43-31.8 212.83-32.8 210.38-21.25 210.78-21.25Q213.63-21.25 215.75-24 217.88-26.75 217.88-29.95L217.88-29.95Q217.88-32.4 216.43-33.8 214.98-35.2 212.38-35.2L212.38-35.2Q206.18-35.2 202.53-31.93 198.88-28.65 198.88-23.05L198.88-23.05Q198.88-22.1 199-21.4 199.13-20.7 199.43-20.05L199.43-20.05Q199.53-19.85 199.55-19.78 199.58-19.7 199.58-19.65L199.58-19.65Q196.78-19.65 195.5-20.83 194.23-22 194.23-24.5L194.23-24.5Q194.23-27 195.9-29.5 197.58-32 200.58-34L200.58-34Q203.13-35.65 206.05-36.58 208.98-37.5 211.78-37.5L211.78-37.5Q217.03-37.5 220.08-35.3 223.13-33.1 223.13-29.5L223.13-29.5Q223.13-27.1 221.65-24.75 220.18-22.4 217.73-20.95L217.73-20.95Q219.48-20.45 220.33-19.23 221.18-18 221.18-15.95L221.18-15.95Q221.18-14.8 220.93-13.33 220.68-11.85 219.83-8.85L219.83-8.85Q219.13-6.3 218.93-5.2 218.73-4.1 218.73-3.3L218.73-3.3Q218.73-2.15 219.25-1.25 219.78-0.35 220.68 0L220.68 0Q219.23 0.4 217.95 0.63 216.68 0.85 215.73 0.85L215.73 0.85Q213.78 0.85 212.8 0.03 211.83-0.8 211.83-2.5L211.83-2.5Q211.83-3.35 212.08-4.58 212.33-5.8 213.08-8.65L213.08-8.65Q213.93-11.75 214.2-13.18 214.48-14.6 214.48-15.65L214.48-15.65Q214.48-17.35 213.73-18.2 212.98-19.05 211.48-19.05L211.48-19.05Q211.28-19.05 211.05-19.03 210.83-19 209.83-18.85L209.83-18.85ZM242.32-20.65L242.32-20.65Q242.32-16.5 238.92-13.43 235.52-10.35 230.82-10.1L230.82-10.1Q230.77-9.25 230.75-8.83 230.72-8.4 230.72-8.1L230.72-8.1Q230.72-5.8 231.5-4.85 232.27-3.9 234.32-3.9L234.32-3.9Q236.67-3.9 238.65-4.98 240.62-6.05 243.17-8.95L243.17-8.95 244.87-8.95Q241.97-4.25 238.57-1.98 235.17 0.3 231.12 0.3L231.12 0.3Q227.27 0.3 225.3-1.7 223.32-3.7 223.32-7.65L223.32-7.65Q223.32-10.5 224.22-13.7 225.12-16.9 226.62-19.4L226.62-19.4Q228.47-22.4 231.05-23.93 233.62-25.45 236.82-25.45L236.82-25.45Q239.57-25.45 240.95-24.28 242.32-23.1 242.32-20.65ZM237.22-22.8L237.22-22.8Q235.52-22.8 233.8-19.78 232.07-16.75 231.22-12.5L231.22-12.5Q234.12-12.7 236.3-15.18 238.47-17.65 238.47-20.75L238.47-20.75Q238.47-21.8 238.17-22.3 237.87-22.8 237.22-22.8ZM262.42-20.85L262.42-20.85Q262.42-19.15 261.7-18.18 260.97-17.2 259.77-17.2L259.77-17.2Q259.37-17.2 258.92-17.35 258.47-17.5 258.02-17.8L258.02-17.8Q258.32-18.6 258.47-19.35 258.62-20.1 258.62-20.75L258.62-20.75Q258.62-21.75 258.27-22.28 257.92-22.8 257.22-22.8L257.22-22.8Q255.02-22.8 252.92-17.73 250.82-12.65 250.82-8.1L250.82-8.1Q250.82-5.8 251.6-4.85 252.37-3.9 254.42-3.9L254.42-3.9Q256.77-3.9 258.75-4.98 260.72-6.05 263.27-8.95L263.27-8.95 264.97-8.95Q262.07-4.25 258.67-1.98 255.27 0.3 251.22 0.3L251.22 0.3Q247.37 0.3 245.4-1.7 243.42-3.7 243.42-7.65L243.42-7.65Q243.42-10.5 244.3-13.7 245.17-16.9 246.72-19.4L246.72-19.4Q248.57-22.4 251.15-23.93 253.72-25.45 256.87-25.45L256.87-25.45Q259.62-25.45 261.02-24.28 262.42-23.1 262.42-20.85ZM275.62-31.65L275.62-31.65Q275.62-30 274.44-28.85 273.27-27.7 271.62-27.7L271.62-27.7Q269.97-27.7 268.82-28.85 267.67-30 267.67-31.65L267.67-31.65Q267.67-33.3 268.82-34.48 269.97-35.65 271.62-35.65L271.62-35.65Q273.27-35.65 274.44-34.48 275.62-33.3 275.62-31.65ZM262.87-5.7L262.87-5.7Q262.87-6.35 262.97-7.18 263.07-8 263.27-8.95L263.27-8.95 266.67-25 273.87-25 270.27-8Q270.17-7.55 270.12-7.18 270.07-6.8 270.07-6.4L270.07-6.4Q270.07-5.4 270.54-4.98 271.02-4.55 272.12-4.55L272.12-4.55Q273.52-4.55 274.77-5.78 276.02-7 276.62-8.95L276.62-8.95 278.72-8.95Q277.12-4.4 274.42-2.05 271.72 0.3 268.22 0.3L268.22 0.3Q265.72 0.3 264.29-1.28 262.87-2.85 262.87-5.7ZM285.97-19.2L283.02-5.2Q283.22-4.65 283.72-4.35 284.22-4.05 284.92-4.05L284.92-4.05Q288.07-4.05 289.99-8.1 291.92-12.15 291.92-17.5L291.92-17.5Q291.92-19.55 291.32-20.6 290.72-21.65 289.42-21.65L289.42-21.65Q288.52-21.65 287.57-20.98 286.62-20.3 285.97-19.2L285.97-19.2ZM282.22-1.5L279.62 10.7 272.07 12.5 280.42-26.85 287.62-26.85 286.82-23.1Q288.07-24.15 289.52-24.7 290.97-25.25 292.67-25.25L292.67-25.25Q295.67-25.25 297.22-23.25 298.77-21.25 298.77-17.35L298.77-17.35Q298.77-9.7 295.49-4.7 292.22 0.3 286.47 0.3L286.47 0.3Q284.87 0.3 283.79-0.15 282.72-0.6 282.22-1.5L282.22-1.5ZM319.01-20.65L319.01-20.65Q319.01-16.5 315.61-13.43 312.21-10.35 307.51-10.1L307.51-10.1Q307.46-9.25 307.44-8.83 307.41-8.4 307.41-8.1L307.41-8.1Q307.41-5.8 308.19-4.85 308.96-3.9 311.01-3.9L311.01-3.9Q313.36-3.9 315.34-4.98 317.31-6.05 319.86-8.95L319.86-8.95 321.56-8.95Q318.66-4.25 315.26-1.98 311.86 0.3 307.81 0.3L307.81 0.3Q303.96 0.3 301.99-1.7 300.01-3.7 300.01-7.65L300.01-7.65Q300.01-10.5 300.91-13.7 301.81-16.9 303.31-19.4L303.31-19.4Q305.16-22.4 307.74-23.93 310.31-25.45 313.51-25.45L313.51-25.45Q316.26-25.45 317.64-24.28 319.01-23.1 319.01-20.65ZM313.91-22.8L313.91-22.8Q312.21-22.8 310.49-19.78 308.76-16.75 307.91-12.5L307.91-12.5Q310.81-12.7 312.99-15.18 315.16-17.65 315.16-20.75L315.16-20.75Q315.16-21.8 314.86-22.3 314.56-22.8 313.91-22.8ZM346.71-19.15L342.61 0 335.41 0 342.21-31.8 349.61-32.8 347.26-21.7 347.56-21.7Q350.36-21.7 352.56-24.25 354.76-26.8 354.76-29.8L354.76-29.8Q354.76-32.3 353.03-33.75 351.31-35.2 348.16-35.2L348.16-35.2Q342.91-35.2 339.28-31.85 335.66-28.5 335.66-23.05L335.66-23.05Q335.66-22.1 335.78-21.4 335.91-20.7 336.21-20.05L336.21-20.05Q336.31-19.85 336.33-19.78 336.36-19.7 336.36-19.65L336.36-19.65Q333.66-19.65 332.33-20.8 331.01-21.95 331.01-24.25L331.01-24.25Q331.01-26.95 332.73-29.55 334.46-32.15 337.51-34.1L337.51-34.1Q340.01-35.75 343.03-36.63 346.06-37.5 349.16-37.5L349.16-37.5Q354.06-37.5 356.93-35.3 359.81-33.1 359.81-29.55L359.81-29.55Q359.81-27.2 358.46-25.05 357.11-22.9 354.81-21.6L354.81-21.6Q357.66-21.05 359.18-18.93 360.71-16.8 360.71-13.55L360.71-13.55Q360.71-11.2 360.01-8.6 359.31-6 358.06-4L358.06-4Q356.56-1.6 354.46-0.38 352.36 0.85 349.76 0.85L349.76 0.85Q347.41 0.85 346.11-0.1 344.81-1.05 344.81-2.85L344.81-2.85Q344.81-3.45 344.96-4.17 345.11-4.9 345.46-5.75L345.46-5.75Q346.41-4.8 347.18-4.38 347.96-3.95 348.81-3.95L348.81-3.95Q351.06-3.95 352.41-6.55 353.76-9.15 353.76-12.95L353.76-12.95Q353.76-16.1 352.56-17.7 351.36-19.3 349.01-19.3L349.01-19.3Q348.66-19.3 347.98-19.25 347.31-19.2 346.71-19.15L346.71-19.15ZM361.76-7.7L361.76-7.7Q361.76-10.55 362.68-13.75 363.61-16.95 365.21-19.45L365.21-19.45Q367.06-22.4 369.66-23.93 372.26-25.45 375.46-25.45L375.46-25.45Q378.66-25.45 380.26-23.45 381.86-21.45 381.86-17.45L381.86-17.45Q381.96-17.4 382.08-17.38 382.21-17.35 382.41-17.35L382.41-17.35Q383.96-17.35 386.11-18.2 388.26-19.05 390.11-20.35L390.11-20.35 390.56-19Q389.16-17.5 386.83-16.4 384.51-15.3 381.71-14.85L381.71-14.85Q381.11-8.1 377.81-3.95 374.51 0.2 369.76 0.2L369.76 0.2Q365.86 0.2 363.81-1.8 361.76-3.8 361.76-7.7ZM375.86-22.4L375.86-22.4Q373.46-22.4 371.33-17.55 369.21-12.7 369.21-8.35L369.21-8.35Q369.21-6 369.73-5.15 370.26-4.3 371.76-4.3L371.76-4.3Q373.61-4.3 375.28-7.3 376.96-10.3 377.56-14.7L377.56-14.7Q376.86-14.85 376.53-15.38 376.21-15.9 376.21-16.8L376.21-16.8Q376.21-17.75 376.61-18.45 377.01-19.15 377.76-19.5L377.76-19.5Q377.66-21.1 377.23-21.75 376.81-22.4 375.86-22.4ZM383.7-7.7L383.7-7.7Q383.7-10.55 384.63-13.75 385.55-16.95 387.15-19.45L387.15-19.45Q389-22.4 391.6-23.93 394.2-25.45 397.4-25.45L397.4-25.45Q400.6-25.45 402.2-23.45 403.8-21.45 403.8-17.45L403.8-17.45Q403.9-17.4 404.03-17.38 404.15-17.35 404.35-17.35L404.35-17.35Q405.9-17.35 408.05-18.2 410.2-19.05 412.05-20.35L412.05-20.35 412.5-19Q411.1-17.5 408.78-16.4 406.45-15.3 403.65-14.85L403.65-14.85Q403.05-8.1 399.75-3.95 396.45 0.2 391.7 0.2L391.7 0.2Q387.8 0.2 385.75-1.8 383.7-3.8 383.7-7.7ZM397.8-22.4L397.8-22.4Q395.4-22.4 393.28-17.55 391.15-12.7 391.15-8.35L391.15-8.35Q391.15-6 391.68-5.15 392.2-4.3 393.7-4.3L393.7-4.3Q395.55-4.3 397.23-7.3 398.9-10.3 399.5-14.7L399.5-14.7Q398.8-14.85 398.48-15.38 398.15-15.9 398.15-16.8L398.15-16.8Q398.15-17.75 398.55-18.45 398.95-19.15 399.7-19.5L399.7-19.5Q399.6-21.1 399.18-21.75 398.75-22.4 397.8-22.4ZM411.7-34L419.1-35 415.35-17.4 425-25 429.95-25 419.95-18.05Q420.65-18.15 420.98-18.2 421.3-18.25 421.6-18.25L421.6-18.25Q424.15-18.25 425.63-16.65 427.1-15.05 427.1-12.4L427.1-12.4Q427.1-11.9 427.05-11.43 427-10.95 426.9-10.5L426.9-10.5 426.35-8Q426.25-7.4 426.18-7 426.1-6.6 426.1-6.4L426.1-6.4Q426.1-5.45 426.58-5 427.05-4.55 428.05-4.55L428.05-4.55Q429.3-4.55 430.2-5.4 431.1-6.25 432.25-8.95L432.25-8.95 434.35-8.95Q432.8-4.35 430.5-2.02 428.2 0.3 425.15 0.3L425.15 0.3Q422.1 0.3 420.48-1.18 418.85-2.65 418.85-5.4L418.85-5.4Q418.85-6 418.93-6.65 419-7.3 419.15-8L419.15-8 419.55-9.95Q419.65-10.4 419.7-10.85 419.75-11.3 419.75-11.8L419.75-11.8Q419.75-13 419.3-13.6 418.85-14.2 417.95-14.2L417.95-14.2Q417.2-14.2 416.33-13.78 415.45-13.35 414.25-12.35L414.25-12.35 411.65 0 404.45 0 411.7-34Z" opacity="1" transform="matrix(1,0,0,1,0,0)" fill="#e6003d" class="undefined-text-0" data-fill-palette-color="primary" id="text-0"></path></svg></g></svg></g></svg></g></svg></g><g transform="matrix(1,0,0,1,406.2784721189077,0)"><svg viewBox="0 0 70.59596321965485 62.98060145178017" height="62.98060145178017" width="70.59596321965485"><g><svg xmlns="http://www.w3.org/2000/svg" xmlns:xlink="http://www.w3.org/1999/xlink" version="1.1" x="0" y="0" viewBox="8.386999999999999 13.004999999999999 84.192 75.11" enable-background="new 0 0 100 100" xml:space="preserve" height="62.98060145178017" width="70.59596321965485" class="icon-icon-0" data-fill-palette-color="accent" id="icon-0"><g fill="#000000" data-fill-palette-color="accent"><path d="M49.569 22.967c-9.975-5.691-20.677-9.125-31.045-9.962v58.351c10.367 0.814 21.05 4.154 31.045 9.699V22.967z" fill="#000000" data-fill-palette-color="accent"></path><path d="M49.229 84.073c0.814 0.278 1.671 0.29 2.485 0.012 11.657-5.043 23.865-7.313 35.798-6.79V19.524c-1.074-0.048-2.155-0.059-3.24-0.055v53.594l-0.852 0.056c-10.672 0.697-21.732 4.177-32.021 10.048-0.594 0.203-1.237 0.203-1.83 0-10.29-5.871-21.349-9.351-32.021-10.048l-0.854-0.056V19.469c-1.084-0.004-2.166 0.006-3.239 0.055v57.771C25.387 76.771 37.569 79.03 49.229 84.073z" fill="#000000" data-fill-palette-color="accent"></path><path d="M92.579 26.009c-1.07-0.149-2.157-0.228-3.237-0.335v53.55l-0.968-0.056c-12.195-0.699-25.06 1.777-36.975 7.065l-0.916 0.381-0.915-0.381c-11.917-5.288-24.781-7.765-36.976-7.065l-0.967 0.056v-53.55c-1.081 0.108-2.168 0.187-3.238 0.335v58.707c0.594 0.307 1.044 0.748 1.044 0.748 12.951-1.75 26.393-1.536 39.18 2.651 0.588-0.058 1.212-0.095 1.873-0.095 0.661 0 1.285 0.037 1.872 0.095 12.785-4.188 26.229-4.401 39.179-2.651 0 0 0.474-0.462 1.044-0.748V26.009z" fill="#000000" data-fill-palette-color="accent"></path><path d="M65.283 16.667v20.625l-3.98-4.738-4.195 4.738V19.994c-1.924 0.91-3.829 1.901-5.708 2.974v58.087c9.993-5.545 20.679-8.885 31.045-9.699V13.005C76.766 13.464 70.987 14.706 65.283 16.667z" fill="#000000" data-fill-palette-color="accent"></path></g></svg></g></svg></g></svg></g><defs></defs></svg><rect width="395.52" height="52.236156187577734" fill="none" stroke="none" visibility="hidden"></rect></g></svg></g></svg>